<svg width="83" height="83" viewBox="0 0 83 83" fill="none" xmlns="http://www.w3.org/2000/svg">
<mask id="mask0_501_7" style="mask-type:alpha" maskUnits="userSpaceOnUse" x="0" y="0" width="83" height="83">
<path d="M41.28 0C18.4816 0 0 18.4816 0 41.28C0 64.0784 18.4816 82.56 41.28 82.56C64.0784 82.56 82.56 64.0784 82.56 41.28C82.56 18.4816 64.0784 0 41.28 0ZM41.28 7.98968C59.6782 7.98968 74.5703 22.8789 74.5703 41.28C74.5703 59.6782 59.6811 74.5703 41.28 74.5703C22.8818 74.5703 7.98968 59.6811 7.98968 41.28C7.98968 22.8818 22.8789 7.98968 41.28 7.98968ZM64.6172 29.6728L60.866 25.8914C60.0892 25.1082 58.8245 25.1031 58.0413 25.8801L34.5131 49.2192L24.5606 39.186C23.7838 38.4029 22.5191 38.3977 21.7359 39.1746L17.9543 42.9257C17.1711 43.7025 17.166 44.9672 17.943 45.7506L33.0536 60.9835C33.8305 61.7667 35.0952 61.7719 35.8783 60.9949L64.606 32.4977C65.389 31.7207 65.394 30.456 64.6172 29.6728Z" fill="black"/>
</mask>
<g mask="url(#mask0_501_7)">
<rect width="82.56" height="82.56" fill="#6495ED"/>
</g>
</svg>
